HIERARCHY
ROOT Hips
{
	OFFSET 0.000000 0.000000 0.000000 
	CHANNELS 6 Xposition Yposition Zposition Zrotation Yrotation Xrotation
	JOINT LeftUpLeg
	{
		OFFSET 1.363060 -1.794630 0.839290 
		CHANNELS 3 Zrotation Yrotation Xrotation
		JOINT LeftLeg
		{
			OFFSET 2.448110 -6.726130 0.000000 
			CHANNELS 3 Zrotation Yrotation Xrotation
			JOINT LeftFoot
			{
				OFFSET 2.562200 -7.039590 0.000000 
				CHANNELS 3 Zrotation Yrotation Xrotation
				JOINT LeftToeBase
				{
					OFFSET 0.157640 -0.433110 2.322550 
					CHANNELS 3 Zrotation Yrotation Xrotation
					End Site
					{
						OFFSET 0.000000 0.000000 0.000000 
					}
				}
			}
		}
	}
	JOINT RightUpLeg
	{
		OFFSET -1.305520 -1.794630 0.839290 
		CHANNELS 3 Zrotation Yrotation Xrotation
		JOINT RightLeg
		{
			OFFSET -2.542530 -6.985550 0.000000 
			CHANNELS 3 Zrotation Yrotation Xrotation
			JOINT RightFoot
			{
				OFFSET -2.568260 -7.056230 0.000000 
				CHANNELS 3 Zrotation Yrotation Xrotation
				JOINT RightToeBase
				{
					OFFSET -0.164730 -0.452590 2.363150 
					CHANNELS 3 Zrotation Yrotation Xrotation
					End Site
					{
						OFFSET 0.000000 0.000000 0.000000 
					}
				}
			}
		}
	}
	JOINT Spine
	{
		OFFSET 0.028270 2.035590 -0.193380 
		CHANNELS 3 Zrotation Yrotation Xrotation
		JOINT Spine1
		{
			OFFSET 0.056720 2.048850 -0.042750 
			CHANNELS 3 Zrotation Yrotation Xrotation
			JOINT Neck1
			{
				OFFSET -0.054170 1.746240 0.172020 
				CHANNELS 3 Zrotation Yrotation Xrotation
				JOINT Head
				{
					OFFSET 0.104070 1.761360 -0.123970 
					CHANNELS 3 Zrotation Yrotation Xrotation
					End Site
					{
						OFFSET 0.000000 0.000000 0.000000 
					}
				}
			}
			JOINT LeftArm
			{
				OFFSET 3.362410 1.200890 -0.311210 
				CHANNELS 3 Zrotation Yrotation Xrotation
				JOINT LeftForeArm
				{
					OFFSET 4.983000 -0.000000 -0.000000 
					CHANNELS 3 Zrotation Yrotation Xrotation
					JOINT LeftHand
					{
						OFFSET 3.483560 -0.000000 -0.000000 
						CHANNELS 3 Zrotation Yrotation Xrotation
						JOINT LeftHandIndex1
						{
							OFFSET 0.715260 -0.000000 -0.000000 
							CHANNELS 3 Zrotation Yrotation Xrotation
							End Site
							{
								OFFSET 0.000000 0.000000 0.000000 
							}
						}
					}
				}
			}
			JOINT RightArm
			{
				OFFSET -3.136600 1.374050 -0.404650 
				CHANNELS 3 Zrotation Yrotation Xrotation
				JOINT RightForeArm
				{
					OFFSET -5.241900 -0.000000 -0.000000 
					CHANNELS 3 Zrotation Yrotation Xrotation
					JOINT RightHand
					{
						OFFSET -3.444170 -0.000000 -0.000000 
						CHANNELS 3 Zrotation Yrotation Xrotation
						JOINT RightHandIndex1
						{
							OFFSET -0.622530 -0.000000 -0.000000 
							CHANNELS 3 Zrotation Yrotation Xrotation
							End Site
							{
								OFFSET 0.000000 0.000000 0.000000 
							}
						}
					}
				}
			}
		}
	}
}
MOTION
Frames: 9
Frame Time: 0.041667
17.988252 18.186516 -2.056071 146.231404 -87.379567 -134.546530 -11.261063 -27.924805 -6.984249 -1.029044 5.932776 18.984590 -8.556490 26.399522 -6.269306 0.378900 3.953200 10.945100 12.466290 26.715111 -10.688954 -0.264462 -6.705309 21.894674 1.511503 -10.087883 -13.604570 -0.135500 -2.372200 6.535500 1.179600 -0.134920 -7.808329 0.856099 0.150869 -4.227139 -0.597652 2.515965 14.568933 -0.541700 1.183800 4.253000 -94.305761 12.225013 1.640096 23.461942 -23.254572 -4.750112 1.419136 0.309378 21.105276 -7.125000 0.000000 0.000000 83.547157 -11.783955 16.712417 -18.475691 20.769415 -5.481616 1.949231 -0.305482 9.260965 7.125000 0.000000 0.000000 
17.985992 18.184369 -2.054829 145.918943 -87.374303 -134.266565 -11.311612 -27.926802 -6.938549 -1.031178 5.937501 19.015051 -8.518338 26.301472 -6.381639 0.386900 3.994300 11.060600 12.455804 26.632840 -10.649090 -0.261777 -6.703860 21.887913 1.483673 -9.987417 -13.649918 -0.141100 -2.420700 6.669800 1.168601 -0.144897 -7.809733 0.832309 0.144065 -4.197007 -0.478834 2.694551 14.376606 -0.516000 1.281400 4.137300 -94.336689 12.296436 1.718426 23.531476 -23.317938 -4.760154 1.407433 0.315167 21.007029 -7.125000 0.000000 0.000000 83.530405 -11.777865 16.752831 -18.495082 20.789642 -5.491470 1.950079 -0.300921 9.236681 7.125000 0.000000 0.000000 
17.983394 18.182223 -2.056636 145.494739 -87.466326 -133.895487 -11.263221 -27.755916 -7.001223 -1.027604 5.961541 19.077413 -8.433259 26.057674 -6.325098 0.393400 4.027200 11.153100 12.575057 26.614942 -10.488150 -0.254475 -6.684091 21.851129 1.508300 -10.108332 -13.707903 -0.124000 -2.270400 6.253700 1.200440 -0.231598 -7.740317 0.862847 0.100427 -4.177469 -0.705096 2.571491 14.749412 -0.581000 1.210300 4.385400 -94.318878 12.097532 1.530340 23.388902 -23.185955 -4.722566 1.418371 0.312397 21.090552 -7.125000 0.000000 0.000000 83.470998 -11.698014 16.838395 -18.558605 20.868520 -5.513313 1.946572 -0.292529 9.251525 7.125000 0.000000 0.000000 
17.983394 18.181432 -2.058331 145.064493 -87.515705 -133.517482 -11.257678 -27.785168 -6.960003 -1.023461 5.975134 19.115440 -8.417813 26.015993 -6.359208 0.403600 4.078600 11.297800 12.636132 26.662177 -10.357424 -0.249259 -6.669364 21.823103 1.529491 -10.214314 -13.766950 -0.119200 -2.226300 6.131400 1.270662 -0.373450 -7.611144 0.969291 0.030929 -4.087177 -0.657605 2.659035 15.346615 -0.545900 1.254000 4.735300 -94.359783 11.726751 1.183621 23.258289 -23.087760 -4.688796 1.424749 0.308418 21.200772 -7.125000 0.000000 0.000000 83.247847 -11.391764 17.093706 -18.476502 20.788319 -5.476351 1.947073 -0.294209 9.300248 7.125000 0.000000 0.000000 
17.984185 18.182901 -2.058218 145.302458 -87.514908 -133.744936 -11.258264 -27.867067 -6.948458 -1.007655 5.990469 19.148428 -8.480096 26.193273 -6.292120 0.367300 3.892900 10.775500 12.627687 26.699659 -10.349098 -0.241643 -6.653594 21.777707 1.522632 -10.194445 -13.796276 -0.122600 -2.257200 6.217100 1.300097 -0.404755 -7.526939 1.004218 0.014498 -3.954763 -0.593636 2.657541 15.256572 -0.491100 1.246500 4.780100 -94.368366 11.534895 1.082917 23.265577 -23.117120 -4.682542 1.415316 0.308143 21.269880 -7.125000 0.000000 0.000000 83.138504 -11.192864 17.246710 -18.445626 20.763063 -5.469586 1.944434 -0.293197 9.215141 7.125000 0.000000 0.000000 
17.983733 18.183917 -2.058331 145.382042 -87.513901 -133.823633 -11.247643 -27.594989 -7.088675 -0.996168 6.009412 19.168932 -8.469985 26.163818 -5.972041 0.346000 3.779800 10.457900 12.643299 26.673618 -10.334664 -0.238600 -6.646182 21.758426 1.526590 -10.202891 -13.773931 -0.104300 -2.082400 5.733400 1.292016 -0.364512 -7.547335 0.992557 0.034457 -3.959598 -0.447889 2.658810 15.590473 -0.441200 1.253800 4.868700 -94.371847 11.640881 1.110922 23.293009 -23.135690 -4.686111 1.414112 0.303238 21.402584 -7.125000 0.000000 0.000000 83.194913 -11.311526 17.204273 -18.506530 20.831280 -5.500463 1.941271 -0.287118 9.141885 7.125000 0.000000 0.000000 
17.982829 18.183691 -2.058896 146.017314 -87.467210 -134.493200 -11.263692 -27.433147 -7.120164 -0.996478 6.017497 19.189744 -8.443085 26.090879 -5.947521 0.374800 3.931800 10.884900 12.672158 26.616590 -10.306401 -0.238068 -6.644293 21.749756 1.535904 -10.199848 -13.646390 -0.091500 -1.951300 5.371100 1.212430 -0.226350 -7.632670 0.870762 0.099329 -4.053429 -0.626634 2.455353 15.356430 -0.536800 1.151400 4.680300 -94.279432 11.939928 1.361024 23.328434 -23.135814 -4.699129 1.420738 0.301271 21.438113 -7.125000 0.000000 0.000000 83.466544 -11.660236 16.972021 -18.662594 20.986172 -5.546261 1.939963 -0.290440 9.118072 7.125000 0.000000 0.000000 
17.983846 18.183466 -2.058896 146.050609 -87.439916 -134.533333 -11.295890 -27.537657 -7.061696 -0.998804 6.014357 19.200134 -8.454138 26.127405 -6.124683 0.363600 3.873600 10.721300 12.647531 26.623739 -10.312791 -0.236543 -6.641983 21.736183 1.547755 -10.225029 -13.576712 -0.099100 -2.030500 5.589800 1.137515 -0.129086 -7.704209 0.741137 0.144804 -4.151346 -0.376715 2.344864 15.240946 -0.468300 1.107800 4.549300 -94.172393 12.142044 1.619878 23.366517 -23.148450 -4.707946 1.420212 0.306432 21.346932 -7.125000 0.000000 0.000000 83.677792 -11.863674 16.789822 -18.753020 21.075529 -5.576724 1.938682 -0.291668 9.082422 7.125000 0.000000 0.000000 
17.986331 18.183691 -2.057427 145.355707 -87.460510 -133.818354 -11.305206 -27.581963 -7.069816 -1.007692 6.004533 19.193850 -8.406512 25.994947 -6.256982 0.365500 3.883400 10.749000 12.599734 26.615880 -10.355599 -0.236348 -6.644836 21.739389 1.545307 -10.226529 -13.615612 -0.100200 -2.041500 5.620200 1.110691 -0.103377 -7.731673 0.715257 0.159369 -4.182231 -0.510052 2.386245 14.689195 -0.535600 1.128400 4.342800 -94.154969 12.179484 1.691742 23.387847 -23.164992 -4.719199 1.423612 0.303089 21.295233 -7.125000 0.000000 0.000000 83.685286 -11.735357 16.598055 -18.559659 20.873589 -5.516941 1.943794 -0.299905 9.231077 7.125000 0.000000 0.000000 
